#!OML:ASF X:\für Bonn\!DataBase\2005_08_12_Daniel\c3d\Daniel.ASF
:FULLY-SPECIFIED
:DEGREES
168
root 1.24455 16.2246 -18.7051 203.711 157.277 -167.99
lowerback 84.5964 -8.89634 12.3247
upperback 8.06123 2.14409 -3.26161
thorax -9.81769 1.84205 -9.41651
lowerneck 2.30902 -7.75617 -0.750803
upperneck 6.25829 -10.0335 -1.54059
head 1.50962 -4.92278 -0.411129
rclavicle -5.08889e-014 -7.95139e-014
rhumerus 64.0004 -31.9049 -98.6735
rradius 11.4696
rwrist 14.0337
rhand -54.6009 6.34596
rfingers 7.12502
rthumb -26.9984 -21.7447
lclavicle -5.08889e-014 -7.95139e-014
lhumerus -27.8738 -18.0174 94.2555
lradius 63.8217
lwrist 12.6824
lhand -11.9139 -12.5231
lfingers 7.12502
lthumb 14.1399 16.9757
rfemur -60.7549 -12.2285 4.93083
rtibia 66.2806
rfoot -23.6562 -9.10616
rtoes -17.8109
lfemur -62.6986 -11.4684 -23.9457
ltibia 57.0105
lfoot -12.6601 -16.4098
ltoes -7.37941
169
root 1.23716 16.214 -18.6901 203.784 157.089 -167.935
lowerback 84.6112 -8.83784 12.2063
upperback 8.08738 2.12857 -3.20255
thorax -9.8006 1.83514 -9.295
lowerneck 2.47344 -7.70315 -1.03785
upperneck 6.16661 -9.97635 -1.32174
head 1.47956 -4.89696 -0.291453
rclavicle -6.36111e-015 -4.45278e-014
rhumerus 64.0681 -31.2577 -98.683
rradius 11.176
rwrist 15.2981
rhand -55.1903 7.67935
rfingers 7.12502
rthumb -27.5622 -20.3227
lclavicle -6.36111e-015 -4.45278e-014
lhumerus -27.7147 -17.7474 94.2651
lradius 63.742
lwrist 12.765
lhand -11.8347 -12.7283
lfingers 7.12502
lthumb 14.2163 16.7652
rfemur -60.8273 -12.2763 4.93024
rtibia 66.5488
rfoot -23.8622 -9.18118
rtoes -17.816
lfemur -62.8267 -11.4868 -23.9615
ltibia 57.2009
lfoot -12.7341 -16.603
ltoes -7.34083
170
root 1.23034 16.2028 -18.6754 203.864 156.891 -167.874
lowerback 84.6256 -8.78206 12.104
upperback 8.09813 2.12707 -3.12978
thorax -9.79838 1.82995 -9.16823
lowerneck 2.61159 -7.6674 -1.31998
upperneck 6.11731 -9.93864 -1.15832
head 1.46426 -4.88106 -0.191757
rclavicle -4.77083e-014 1.07344e-013
rhumerus 64.1853 -30.6161 -98.6639
rradius 10.7844
rwrist 16.8202
rhand -55.7372 8.46929
rfingers 7.12502
rthumb -28.085 -19.4481
lclavicle -4.77083e-014 1.07344e-013
lhumerus -27.5819 -17.4814 94.297
lradius 63.6377
lwrist 12.8083
lhand -11.7897 -12.8607
lfingers 7.12502
lthumb 14.2596 16.6297
rfemur -60.9022 -12.3477 4.93717
rtibia 66.7983
rfoot -24.0551 -9.29739
rtoes -17.9232
lfemur -62.9432 -11.516 -23.9819
ltibia 57.3581
lfoot -12.8087 -16.778
ltoes -7.40385
171
root 1.22361 16.1906 -18.6607 203.964 156.693 -167.794
lowerback 84.62 -8.73581 11.9927
upperback 8.12665 2.10281 -3.07218
thorax -9.78159 1.81991 -9.04777
lowerneck 2.68787 -7.62172 -1.57518
upperneck 6.08737 -9.88864 -0.97925
head 1.46501 -4.85908 -0.094638
rclavicle -1.27222e-014 1.59028e-015
rhumerus 64.4382 -29.9981 -98.8178
rradius 10.3565
rwrist 18.6609
rhand -56.1656 8.93744
rfingers 7.12502
rthumb -28.4945 -18.9121
lclavicle -1.27222e-014 1.59028e-015
lhumerus -27.4151 -17.1878 94.2997
lradius 63.5302
lwrist 12.8709
lhand -11.6421 -12.9239
lfingers 7.12502
lthumb 14.4019 16.5564
rfemur -60.9884 -12.412 4.91126
rtibia 67.0513
rfoot -24.2612 -9.40217
rtoes -17.8751
lfemur -63.0851 -11.56 -24.0072
ltibia 57.5166
lfoot -12.8199 -16.9705
ltoes -7.21835
172
root 1.21652 16.1779 -18.6457 204.038 156.513 -167.721
lowerback 84.6658 -8.67447 11.8688
upperback 8.13052 2.09253 -3.00898
thorax -9.78629 1.81206 -8.92163
lowerneck 2.73904 -7.58058 -1.86822
upperneck 6.09537 -9.84357 -0.805843
head 1.48383 -4.84028 0.00469696
rclavicle -1.08139e-013 2.38542e-014
rhumerus 64.6631 -29.3748 -98.8921
rradius 9.92301
rwrist 20.5912
rhand -56.4036 8.95123
rfingers 7.12502
rthumb -28.7219 -18.86
lclavicle -1.08139e-013 2.38542e-014
lhumerus -27.3107 -16.8953 94.3201
lradius 63.4394
lwrist 12.8995
lhand -11.5718 -12.9911
lfingers 7.12502
lthumb 14.4697 16.4844
rfemur -61.058 -12.4586 4.89171
rtibia 67.3014
rfoot -24.4213 -9.50456
rtoes -17.8613
lfemur -63.1925 -11.5605 -24.0577
ltibia 57.681
lfoot -12.8783 -17.1627
ltoes -7.19249
173
root 1.20912 16.167 -18.6314 204.092 156.305 -167.638
lowerback 84.767 -8.63948 11.7593
upperback 8.10264 2.0796 -2.94937
thorax -9.81877 1.80108 -8.80332
lowerneck 2.77737 -7.54251 -2.10926
upperneck 6.1105 -9.80162 -0.64489
head 1.50369 -4.82225 0.0918066
rclavicle 1.90833e-014 2.62396e-014
rhumerus 64.8379 -28.7915 -98.9507
rradius 9.56082
rwrist 22.6518
rhand -56.3536 8.77785
rfingers 7.12502
rthumb -28.6741 -19.0415
lclavicle 1.90833e-014 2.62396e-014
lhumerus -27.2622 -16.6281 94.3289
lradius 63.3707
lwrist 12.9338
lhand -11.4287 -13.0144
lfingers 7.12502
lthumb 14.6074 16.4512
rfemur -61.0802 -12.5139 4.85746
rtibia 67.5534
rfoot -24.6423 -9.61088
rtoes -17.8046
lfemur -63.2723 -11.5747 -24.1175
ltibia 57.841
lfoot -12.9344 -17.3628
ltoes -7.19395
